<?xml version="1.0" standalone="no"?><svg xmlns="http://www.w3.org/2000/svg" viewBox="0 0 1440 320"><path fill="#f3f4f5" fill-opacity="1" d="M0,32L34.3,32C68.6,32,137,32,206,48C274.3,64,343,96,411,96C480,96,549,64,617,90.7C685.7,117,754,203,823,224C891.4,245,960,203,1029,202.7C1097.1,203,1166,245,1234,245.3C1302.9,245,1371,203,1406,181.3L1440,160L1440,0L1405.7,0C1371.4,0,1303,0,1234,0C1165.7,0,1097,0,1029,0C960,0,891,0,823,0C754.3,0,686,0,617,0C548.6,0,480,0,411,0C342.9,0,274,0,206,0C137.1,0,69,0,34,0L0,0Z"></path></svg>